<svg width="157" height="215" viewBox="0 0 157 215" fill="none" xmlns="http://www.w3.org/2000/svg">
<path d="M130.547 54.8984C130.049 50.2464 127.954 46.6243 124.261 44.032C120.603 41.4396 115.845 40.1435 109.986 40.1435C105.866 40.1435 102.333 40.7649 99.3854 42.0078C96.438 43.2507 94.183 44.9375 92.6205 47.0682C91.058 49.1989 90.259 51.6314 90.2235 54.3658C90.2235 56.6385 90.7384 58.6094 91.7682 60.2784C92.8336 61.9474 94.2718 63.3679 96.0829 64.5398C97.894 65.6761 99.9003 66.6349 102.102 67.4162C104.304 68.1974 106.523 68.8544 108.76 69.3871L118.988 71.9439C123.107 72.9027 127.067 74.1989 130.866 75.8324C134.701 77.4659 138.128 79.5256 141.147 82.0114C144.201 84.4972 146.616 87.4979 148.391 91.0135C150.167 94.5291 151.054 98.6484 151.054 103.371C151.054 109.763 149.421 115.392 146.154 120.257C142.887 125.087 138.164 128.869 131.985 131.603C125.841 134.302 118.402 135.651 109.666 135.651C101.179 135.651 93.8101 134.337 87.5601 131.71C81.3457 129.082 76.4806 125.246 72.965 120.204C69.4849 115.161 67.6028 109.018 67.3187 101.773H86.7611C87.0452 105.573 88.2171 108.734 90.2768 111.255C92.3364 113.776 95.0175 115.658 98.3201 116.901C101.658 118.144 105.387 118.766 109.506 118.766C113.803 118.766 117.567 118.126 120.799 116.848C124.066 115.534 126.623 113.723 128.469 111.415C130.316 109.071 131.257 106.337 131.292 103.212C131.257 100.371 130.422 98.027 128.789 96.1804C127.155 94.2983 124.865 92.7358 121.917 91.4929C119.005 90.2145 115.596 89.0781 111.69 88.0838L99.2789 84.8878C90.2945 82.5795 83.1923 79.0817 77.9721 74.3942C72.7874 69.6712 70.1951 63.4034 70.1951 55.5909C70.1951 49.1633 71.9351 43.5348 75.4153 38.7053C78.9309 33.8757 83.7072 30.1293 89.7441 27.4659C95.781 24.767 102.617 23.4176 110.252 23.4176C117.993 23.4176 124.776 24.767 130.6 27.4659C136.459 30.1293 141.058 33.8402 144.396 38.5987C147.734 43.3217 149.456 48.755 149.563 54.8984H130.547Z" fill="#2C5F2D"/>
<path d="M70.824 111.635C70.3268 106.983 68.2317 103.36 64.5385 100.768C60.8808 98.1757 56.1223 96.8795 50.2629 96.8795C46.1436 96.8795 42.6102 97.501 39.6628 98.7439C36.7153 99.9868 34.4604 101.674 32.8979 103.804C31.3354 105.935 30.5364 108.367 30.5008 111.102C30.5008 113.375 31.0158 115.345 32.0456 117.014C33.1109 118.684 34.5491 120.104 36.3602 121.276C38.1713 122.412 40.1777 123.371 42.3794 124.152C44.5811 124.934 46.8006 125.59 49.0378 126.123L59.265 128.68C63.3844 129.639 67.3439 130.935 71.1436 132.568C74.9788 134.202 78.4057 136.262 81.4241 138.747C84.4781 141.233 86.8929 144.234 88.6685 147.75C90.444 151.265 91.3318 155.385 91.3318 160.108C91.3318 166.5 89.6983 172.128 86.4312 176.993C83.1642 181.823 78.4412 185.605 72.2622 188.339C66.1187 191.038 58.6791 192.387 49.9433 192.387C41.4561 192.387 34.0875 191.073 27.8375 188.446C21.623 185.818 16.7579 181.983 13.2423 176.94C9.76221 171.897 7.88011 165.754 7.59601 158.51H27.0385C27.3226 162.309 28.4945 165.47 30.5541 167.991C32.6138 170.512 35.2949 172.394 38.5974 173.637C41.9355 174.88 45.6642 175.502 49.7835 175.502C54.0804 175.502 57.8446 174.863 61.0761 173.584C64.3432 172.27 66.9 170.459 68.7466 168.151C70.5932 165.807 71.5342 163.073 71.5697 159.948C71.5342 157.107 70.6997 154.763 69.0662 152.916C67.4327 151.034 65.1422 149.472 62.1947 148.229C59.2828 146.951 55.8737 145.814 51.9675 144.82L39.5562 141.624C30.5719 139.316 23.4696 135.818 18.2494 131.13C13.0648 126.407 10.4724 120.139 10.4724 112.327C10.4724 105.899 12.2125 100.271 15.6926 95.4413C19.2082 90.6118 23.9845 86.8653 30.0214 84.202C36.0584 81.5031 42.8943 80.1537 50.5293 80.1537C58.2707 80.1537 65.0534 81.5031 70.8773 84.202C76.7366 86.8653 81.3354 90.5763 84.6734 95.3348C88.0115 100.058 89.7338 105.491 89.8403 111.635H70.824Z" fill="#2C5F2D"/>
</svg>
